<svg xmlns="http://www.w3.org/2000/svg" viewBox="0 0 735.71 189.49"><defs><style>.cls-1{fill:#1d1d1b;}</style></defs><g id="Layer_2" data-name="Layer 2"><g id="Layer_1-2" data-name="Layer 1"><path class="cls-1" d="M0,48A40.82,40.82,0,0,1,3.35,31.55,43.07,43.07,0,0,1,25.93,9,40.82,40.82,0,0,1,42.39,5.62h64.88v28.3H42.39A14.08,14.08,0,0,0,36.87,35a14,14,0,0,0-7.49,7.49A14.08,14.08,0,0,0,28.3,48a14.43,14.43,0,0,0,1.08,5.57,13.6,13.6,0,0,0,3,4.54,13.93,13.93,0,0,0,10,4.09h28.3a41.64,41.64,0,0,1,16.51,3.3,42.17,42.17,0,0,1,22.58,22.58,42.85,42.85,0,0,1,0,33,42.7,42.7,0,0,1-9.07,13.46,43.39,43.39,0,0,1-13.51,9.12A41.16,41.16,0,0,1,70.69,147H7.89V118.7h62.8a14,14,0,0,0,10-4.09,14.12,14.12,0,0,0-4.49-23,14.08,14.08,0,0,0-5.52-1.08H42.39a40.66,40.66,0,0,1-16.46-3.36A43,43,0,0,1,3.35,64.53,41.21,41.21,0,0,1,0,48Z"/><path class="cls-1" d="M231,147h-6.51L214,132.5A83.93,83.93,0,0,1,205.9,139a59.13,59.13,0,0,1-9,5.23,55.53,55.53,0,0,1-9.71,3.5,40.59,40.59,0,0,1-10.1,1.28,58.16,58.16,0,0,1-20.95-3.75A49.63,49.63,0,0,1,139,134.33a51,51,0,0,1-11.58-17.5,61.66,61.66,0,0,1-4.24-23.56,58.84,58.84,0,0,1,4.24-22.63A53.72,53.72,0,0,1,139,52.94a52.36,52.36,0,0,1,17.16-11.48,53.82,53.82,0,0,1,20.95-4.09,40.69,40.69,0,0,1,10.15,1.28A52.34,52.34,0,0,1,197,42.2a60.15,60.15,0,0,1,9,5.32,74.77,74.77,0,0,1,8,6.61L224.49,41.6H231ZM203.88,93.27a27.86,27.86,0,0,0-2.12-10.7A30.68,30.68,0,0,0,196,73.4,28.87,28.87,0,0,0,187.47,67a23.15,23.15,0,0,0-10.4-2.41,28.73,28.73,0,0,0-10.4,1.87A23.68,23.68,0,0,0,158.19,72a25.9,25.9,0,0,0-5.67,9,34,34,0,0,0-2.07,12.28,33.94,33.94,0,0,0,2.07,12.27,25.9,25.9,0,0,0,5.67,9,23.68,23.68,0,0,0,8.48,5.52,28.74,28.74,0,0,0,10.4,1.88,23.16,23.16,0,0,0,10.4-2.42,28.87,28.87,0,0,0,8.53-6.41,30.68,30.68,0,0,0,5.76-9.17A27.81,27.81,0,0,0,203.88,93.27Z"/><path class="cls-1" d="M243.62,42.29H259V34.41q0-13.21,2.81-19.72t10.35-10.6Q279.71,0,291.23,0A77,77,0,0,1,314.4,3.55l-3.74,19.32a54.88,54.88,0,0,0-12.72-1.57q-6,0-8.63,2.8T286.7,34.9v7.39h20.7V64.08H286.7V147H259V64.08H243.62Z"/><path class="cls-1" d="M421,147h-6.51L404,132.5a83.8,83.8,0,0,1-8.13,6.46,60.11,60.11,0,0,1-9,5.23,56.12,56.12,0,0,1-9.71,3.5A40.61,40.61,0,0,1,367.05,149a58.16,58.16,0,0,1-20.95-3.75A49.5,49.5,0,0,1,329,134.33a51.13,51.13,0,0,1-11.59-17.5,61.66,61.66,0,0,1-4.24-23.56,58.84,58.84,0,0,1,4.24-22.63A53.9,53.9,0,0,1,329,52.94,52.21,52.21,0,0,1,346.1,41.46a53.82,53.82,0,0,1,20.95-4.09,40.77,40.77,0,0,1,10.16,1.28A52.6,52.6,0,0,1,387,42.2a60.65,60.65,0,0,1,9,5.32,75.65,75.65,0,0,1,8,6.61L414.47,41.6H421ZM393.87,93.27a28,28,0,0,0-2.12-10.7A30.91,30.91,0,0,0,386,73.4,28.61,28.61,0,0,0,377.45,67a23.12,23.12,0,0,0-10.4-2.41,28.73,28.73,0,0,0-10.4,1.87A23.76,23.76,0,0,0,348.17,72a25.9,25.9,0,0,0-5.67,9,34,34,0,0,0-2.07,12.28,33.94,33.94,0,0,0,2.07,12.27,25.9,25.9,0,0,0,5.67,9,23.76,23.76,0,0,0,8.48,5.52,28.74,28.74,0,0,0,10.4,1.88,23.13,23.13,0,0,0,10.4-2.42,28.61,28.61,0,0,0,8.53-6.41,30.91,30.91,0,0,0,5.77-9.17A28,28,0,0,0,393.87,93.27Z"/><path class="cls-1" d="M432.61,42.29h29.48l25,74.34,24.45-74.34h28.69l-37,100.76-6.6,18.24a74.72,74.72,0,0,1-6.95,14,30.42,30.42,0,0,1-7.6,7.84,32.9,32.9,0,0,1-10.54,4.68,54.76,54.76,0,0,1-14.15,1.68,73.25,73.25,0,0,1-15.68-1.68l-2.46-21.69a60.77,60.77,0,0,0,11.73,1.29q9.66,0,14.29-5.67a39.31,39.31,0,0,0,7.1-14.45Z"/><path class="cls-1" d="M663.87,101.57H581.69a25.58,25.58,0,0,0,10.5,16q8.28,5.85,20.59,5.85a41.8,41.8,0,0,0,15.05-2.52,36.36,36.36,0,0,0,12.21-8l16.76,18.18Q641.46,148.61,612,148.61q-18.37,0-32.5-7.17a52.41,52.41,0,0,1-21.81-19.88A54.77,54.77,0,0,1,550,92.68a55.5,55.5,0,0,1,7.57-28.77,53,53,0,0,1,20.8-20,64.35,64.35,0,0,1,58.45-.3A50.13,50.13,0,0,1,657.1,63.31q7.36,12.81,7.37,29.78Q664.47,93.69,663.87,101.57Zm-73.7-34.93q-7.27,6-8.89,16.55h53.51a26.09,26.09,0,0,0-8.88-16.45,26.54,26.54,0,0,0-17.77-6.16Q597.43,60.58,590.17,66.64Z"/><path class="cls-1" d="M733.44,42.29V64.38H714.51v42.2q0,12.81.54,14.93a6,6,0,0,0,2.47,3.5,7.81,7.81,0,0,0,4.68,1.38q3.84,0,11.14-2.66l2.37,21.49a55.13,55.13,0,0,1-21.89,4.14,34.64,34.64,0,0,1-13.51-2.51q-6-2.52-8.82-6.51a25.81,25.81,0,0,1-3.9-10.79q-.89-4.83-.88-19.52V64.38H674V42.29h12.72V21.49l27.8-16.17v37Z"/></g></g></svg>